<svg width="620" height="360" viewBox="0 0 620 360" xmlns="http://www.w3.org/2000/svg">
  <defs>
    <linearGradient id="bg" x1="0" y1="0" x2="0" y2="1">
      <stop offset="0%" stop-color="#313338"/>
      <stop offset="100%" stop-color="#2b2d31"/>
    </linearGradient>
    <linearGradient id="accent" x1="0" y1="0" x2="1" y2="0">
      <stop offset="0%" stop-color="#8b5cf6"/>
      <stop offset="100%" stop-color="#38bdf8"/>
    </linearGradient>
    <linearGradient id="thumb" x1="0" y1="0" x2="1" y2="1">
      <stop offset="0%" stop-color="#8b5cf6"/>
      <stop offset="100%" stop-color="#4c1d95"/>
    </linearGradient>
    <filter id="shadow" x="-20%" y="-20%" width="140%" height="140%">
      <feDropShadow dx="0" dy="6" stdDeviation="10" flood-color="#000000" flood-opacity="0.35"/>
    </filter>
  </defs>

  <rect width="620" height="360" rx="14" fill="url(#bg)"/>

  <!-- Discord top bar -->
  <rect x="0" y="0" width="620" height="46" rx="14" fill="#232428"/>
  <rect x="0" y="30" width="620" height="16" fill="#232428"/>
  <circle cx="28" cy="23" r="18" fill="#8b5cf6"/>
  <text x="28" y="28" font-family="Segoe UI, Arial" font-size="16" font-weight="700" fill="#ffffff" text-anchor="middle">w</text>
  <text x="56" y="20" font-family="Segoe UI, Arial" font-size="13" font-weight="700" fill="#f2f3f5">wnersdev</text>
  <rect x="56" y="26" width="26" height="12" rx="3" fill="#5865F2"/>
  <text x="69" y="35" font-family="Segoe UI, Arial" font-size="9" font-weight="700" fill="#ffffff" text-anchor="middle">BOT</text>
  <text x="56" y="40" font-family="Segoe UI, Arial" font-size="11" fill="#949ba4">Bugün 21:14</text>

  <!-- Container card (Components V2) -->
  <rect x="24" y="64" width="572" height="272" rx="12" fill="#2b2d31" stroke="url(#accent)" stroke-width="2" filter="url(#shadow)"/>
  <rect x="24" y="64" width="6" height="272" rx="3" fill="url(#accent)"/>

  <!-- Header text -->
  <text x="50" y="98" font-family="Segoe UI, Arial" font-size="13" font-weight="700" fill="#a78bfa">🎵 ŞU AN ÇALIYOR</text>
  <text x="50" y="124" font-family="Segoe UI, Arial" font-size="19" font-weight="700" fill="#ffffff">Gece Yolculuğu — wnersdev Mix</text>
  <text x="50" y="146" font-family="Segoe UI, Arial" font-size="13" fill="#b5bac1">İsteyen: kankam#0001</text>

  <!-- Thumbnail -->
  <rect x="486" y="86" width="86" height="86" rx="10" fill="url(#thumb)"/>
  <text x="529" y="135" font-family="Segoe UI, Arial" font-size="30" text-anchor="middle">🎶</text>

  <!-- Progress bar -->
  <rect x="50" y="168" width="522" height="8" rx="4" fill="#404249"/>
  <rect x="50" y="168" width="330" height="8" rx="4" fill="url(#accent)"/>
  <text x="50" y="190" font-family="Segoe UI, Arial" font-size="11" fill="#949ba4">01:42</text>
  <text x="572" y="190" font-family="Segoe UI, Arial" font-size="11" fill="#949ba4" text-anchor="end">03:05</text>

  <!-- Separator -->
  <line x1="50" y1="204" x2="572" y2="204" stroke="#3f4147" stroke-width="1"/>

  <!-- Info row -->
  <text x="50" y="228" font-family="Segoe UI, Arial" font-size="12" fill="#dbdee1">⏱️ 03:05   •   🔁 Kapalı   •   🔊 %80</text>

  <!-- Buttons row 1 -->
  <g font-family="Segoe UI, Arial" font-size="16">
    <rect x="50" y="248" width="60" height="40" rx="8" fill="#404249"/>
    <text x="80" y="273" text-anchor="middle" fill="#ffffff">⏮️</text>

    <rect x="118" y="248" width="60" height="40" rx="8" fill="#5865F2"/>
    <text x="148" y="273" text-anchor="middle" fill="#ffffff">⏸️</text>

    <rect x="186" y="248" width="60" height="40" rx="8" fill="#404249"/>
    <text x="216" y="273" text-anchor="middle" fill="#ffffff">⏭️</text>

    <rect x="254" y="248" width="60" height="40" rx="8" fill="#da373c"/>
    <text x="284" y="273" text-anchor="middle" fill="#ffffff">⏹️</text>

    <rect x="322" y="248" width="60" height="40" rx="8" fill="#404249"/>
    <text x="352" y="273" text-anchor="middle" fill="#ffffff">🔀</text>
  </g>

  <!-- Buttons row 2 -->
  <g font-family="Segoe UI, Arial" font-size="16">
    <rect x="50" y="296" width="60" height="36" rx="8" fill="#404249"/>
    <text x="80" y="319" text-anchor="middle" fill="#ffffff">🔉</text>

    <rect x="118" y="296" width="60" height="36" rx="8" fill="#404249"/>
    <text x="148" y="319" text-anchor="middle" fill="#ffffff">🔊</text>

    <rect x="186" y="296" width="60" height="36" rx="8" fill="#404249"/>
    <text x="216" y="319" text-anchor="middle" fill="#ffffff">📋</text>

    <rect x="254" y="296" width="60" height="36" rx="8" fill="#404249"/>
    <text x="284" y="319" text-anchor="middle" fill="#ffffff">❤️</text>

    <rect x="322" y="296" width="60" height="36" rx="8" fill="#404249"/>
    <text x="352" y="319" text-anchor="middle" fill="#ffffff">🔁</text>
  </g>

  <text x="572" y="325" font-family="Segoe UI, Arial" font-size="10" fill="#6d28d9" text-anchor="end" font-weight="700">wnersdev music</text>
</svg>
